# xmcd CD database file
#
# Track frame offsets:
#	150
#	22582
#	45232
#	58207
#	72607
#	92407
#	101257
#	115357
#	131482
#	145582
#	165607
#	190657
#	221707
#	237457
#	264982
#	291307
#
# Disc length: 4080 seconds
#
# Revision: 0
# Processed by: cddbd v1.5.1PL0 Copyright (c) Steve Scherf et al.
# Submitted via: CDex 1.51
#
DISCID=df0fee10
DTITLE=薗田憲一とディキシー・キングス - 〜結成４５周年の歩み〜
DYEAR=2005
DGENRE=Jazz
TTITLE0=That's A Plenty
TTITLE1=St. Louis Blues
TTITLE2=ワシントン広場の夜は更けて
TTITLE3=She Was Just A Sailor SweetHeart
TTITLE4=St. James Infirmary
TTITLE5=春の小川
TTITLE6=双頭のワシの旗の下に
TTITLE7=浜千鳥
TTITLE8=帰っておくれビル・ベイリー
TTITLE9=Old Ragged Cross
TTITLE10=花嫁人形
TTITLE11=コンドルは飛んで行く
TTITLE12=星の界
TTITLE13=誰も知らない私の悩み
TTITLE14=Tiger Rag
TTITLE15=聖者の行進
EXTD=YEAR: 2005
EXTT0=
EXTT1=
EXTT2=
EXTT3=
EXTT4=
EXTT5=
EXTT6=
EXTT7=
EXTT8=
EXTT9=
EXTT10=
EXTT11=
EXTT12=
EXTT13=
EXTT14=
EXTT15=
PLAYORDER=
